<svg width="56" height="56" viewBox="0 0 56 56" fill="none" xmlns="http://www.w3.org/2000/svg">
<path d="M0 28C0 12.536 12.536 0 28 0V0C43.464 0 56 12.536 56 28V28C56 43.464 43.464 56 28 56V56C12.536 56 0 43.464 0 28V28Z" fill="#FBF5EB"></path>
<path d="M28 24.9667C28 22.3531 28 21.0463 28.5086 20.048C28.956 19.17 29.67 18.456 30.548 18.0086C31.5463 17.5 32.8531 17.5 35.4667 17.5H35.9333C37.2401 17.5 37.8935 17.5 38.3926 17.7543C38.8317 17.978 39.1886 18.335 39.4123 18.774C39.6667 19.2731 39.6667 19.9265 39.6667 21.2333V31.2667C39.6667 32.5735 39.6667 33.2268 39.4123 33.726C39.1886 34.165 38.8317 34.522 38.3926 34.7457C37.8935 35 37.2401 35 35.9333 35H34.3294C32.8684 35 32.1379 35 31.4748 35.2014C30.8878 35.3796 30.3417 35.6719 29.8677 36.0615C29.3323 36.5015 28.9271 37.1093 28.1167 38.3249L28 38.5L27.8833 38.3249C27.0728 37.1093 26.6676 36.5015 26.1323 36.0615C25.6583 35.6719 25.1122 35.3796 24.5252 35.2014C23.8621 35 23.1316 35 21.6706 35H20.0667C18.7599 35 18.1065 35 17.6074 34.7457C17.1683 34.522 16.8114 34.165 16.5876 33.726C16.3333 33.2268 16.3333 32.5735 16.3333 31.2667V21.2333C16.3333 19.9265 16.3333 19.2731 16.5876 18.774C16.8114 18.335 17.1683 17.978 17.6074 17.7543C18.1065 17.5 18.7599 17.5 20.0667 17.5H20.5333C23.1469 17.5 24.4537 17.5 25.452 18.0086C26.33 18.456 27.044 19.17 27.4914 20.048C28 21.0463 28 22.3531 28 24.9667ZM28 38.5V24.9667" stroke="#1A1712" stroke-width="2" stroke-linecap="round" stroke-linejoin="round"></path>
</svg>