<svg width="56" height="56" viewBox="0 0 56 56" fill="none" xmlns="http://www.w3.org/2000/svg">
<path d="M0 28C0 12.536 12.536 0 28 0V0C43.464 0 56 12.536 56 28V28C56 43.464 43.464 56 28 56V56C12.536 56 0 43.464 0 28V28Z" fill="#FBF5EB"></path>
<path d="M17.5 23.1C17.5 21.1398 17.5 20.1597 17.8815 19.411C18.217 18.7525 18.7525 18.217 19.411 17.8815C20.1597 17.5 21.1398 17.5 23.1 17.5H32.9C34.8602 17.5 35.8403 17.5 36.589 17.8815C37.2475 18.217 37.783 18.7525 38.1185 19.411C38.5 20.1597 38.5 21.1398 38.5 23.1V29.4C38.5 31.3602 38.5 32.3403 38.1185 33.089C37.783 33.7475 37.2475 34.283 36.589 34.6185C35.8403 35 34.8602 35 32.9 35H29.9644C29.2363 35 28.8723 35 28.5241 35.0715C28.2152 35.1349 27.9162 35.2397 27.6354 35.3832C27.3189 35.5449 27.0346 35.7723 26.4661 36.2271L23.683 38.4536C23.1976 38.8419 22.9549 39.0361 22.7506 39.0363C22.573 39.0365 22.4049 38.9557 22.2941 38.8169C22.1667 38.6572 22.1667 38.3464 22.1667 37.7248V35C21.0817 35 20.5392 35 20.0941 34.8807C18.8863 34.5571 17.9429 33.6137 17.6193 32.4059C17.5 31.9608 17.5 31.4183 17.5 30.3333V23.1Z" stroke="#1A1712" stroke-width="2" stroke-linecap="round" stroke-linejoin="round"></path>
</svg>