<svg width="56" height="56" viewBox="0 0 56 56" fill="none" xmlns="http://www.w3.org/2000/svg">
<path d="M0 28C0 12.536 12.536 0 28 0V0C43.464 0 56 12.536 56 28V28C56 43.464 43.464 56 28 56V56C12.536 56 0 43.464 0 28V28Z" fill="#FBF5EB"></path>
<path d="M25.6667 23.3359C25.8722 22.7516 26.278 22.2588 26.812 21.945C27.3461 21.6311 27.974 21.5164 28.5845 21.6211C29.1951 21.7258 29.7488 22.0432 30.1478 22.5171C30.5467 22.991 30.765 23.5908 30.7641 24.2103C30.7641 25.959 28.1411 26.8333 28.1411 26.8333M28.1749 30.3333H28.1866M22.1667 35V37.7248C22.1667 38.3464 22.1667 38.6572 22.2941 38.8169C22.4049 38.9557 22.573 39.0365 22.7506 39.0363C22.9549 39.0361 23.1976 38.8419 23.683 38.4536L26.4661 36.2271C27.0346 35.7723 27.3189 35.5449 27.6354 35.3832C27.9162 35.2397 28.2152 35.1349 28.5241 35.0715C28.8723 35 29.2363 35 29.9644 35H32.9C34.8602 35 35.8403 35 36.589 34.6185C37.2475 34.283 37.783 33.7475 38.1185 33.089C38.5 32.3403 38.5 31.3602 38.5 29.4V23.1C38.5 21.1398 38.5 20.1597 38.1185 19.411C37.783 18.7525 37.2475 18.217 36.589 17.8815C35.8403 17.5 34.8602 17.5 32.9 17.5H23.1C21.1398 17.5 20.1597 17.5 19.411 17.8815C18.7525 18.217 18.217 18.7525 17.8815 19.411C17.5 20.1597 17.5 21.1398 17.5 23.1V30.3333C17.5 31.4183 17.5 31.9608 17.6193 32.4059C17.9429 33.6137 18.8863 34.5571 20.0941 34.8807C20.5392 35 21.0817 35 22.1667 35Z" stroke="#1A1712" stroke-width="2" stroke-linecap="round" stroke-linejoin="round"></path>
</svg>